<svg width="303" height="301" viewBox="0 0 303 301" fill="none" xmlns="http://www.w3.org/2000/svg">
<path d="M57.7238 211.948C28.5 157.5 41 114.5 56 88" stroke="#D71444" stroke-width="8"/>
<path d="M244.749 87.9273C274.251 142.225 261.971 185.288 247.106 211.865" stroke="#D71444" stroke-width="8"/>
<path d="M62 61C96.2417 61 124 101.071 124 150.5C124 199.929 96.2417 240 62 240" stroke="#D71444" stroke-width="8"/>
<path d="M238 61C238 94.6894 198.601 122 150 122C101.399 122 62 94.6894 62 61" stroke="#D71444" stroke-width="8"/>
<path d="M62 240C62 206.311 101.399 179 150 179C198.601 179 238 206.311 238 240" stroke="#D71444" stroke-width="8"/>
<path d="M238 240C205.967 240 180 199.929 180 150.5C180 101.071 205.967 61 238 61" stroke="#D71444" stroke-width="8"/>
<path d="M88 57.1369C142.59 28.1791 185.528 40.8888 211.955 56.0179" stroke="#D71444" stroke-width="8"/>
<path d="M211.948 245.84C156.712 273.545 114.075 259.859 88 244.131" stroke="#D71444" stroke-width="8"/>
</svg>
